<?xml version="1.0" standalone="no"?>
<svg viewBox="0 0 1600 480" width="1600" height="480" xmlns="http://www.w3.org/2000/svg">
	<svg x="0" y="0" viewBox="-50 -50 280 280" width="480" height="480">
		<rect x="20" y="20" width="100" height="100" rx="15" fill="rgb(0 161 255 / 0.5)"></rect>
		<rect x="40" y="40" width="100" height="100" rx="15" fill="rgb(0 161 255 / 0.75)"></rect>
		<rect x="60" y="60" width="100" height="100" rx="15" fill="rgb(0 161 255 / 1)"></rect>
	</svg>
	<svg x="560" y="0" viewBox="-50 -50 280 280" width="480" height="480">
		<rect x="20" y="60" width="100" height="100" rx="15" fill="rgb(255 65 161 / 0.5)"></rect>
		<rect x="20" y="60" width="100" height="100" rx="15" fill="rgb(255 65 161 / 0.75)" transform="rotate(22.5 120 160)"></rect>
		<rect x="20" y="60" width="100" height="100" rx="15" fill="rgb(255 65 161 / 1)" transform="rotate(45 120 160)"></rect>
	</svg>
	<svg x="1120" y="0" viewBox="-50 -50 280 280" width="480" height="480">
		<rect x="40" y="40" width="100" height="100" rx="15" fill="rgb(31 177 4 / 1)"></rect>
		<rect x="40" y="40" width="100" height="100" rx="15" fill="rgb(31 177 4 / 0.75)" transform="translate(-22.5,-22.5) scale(1.25)"></rect>
		<rect x="40" y="40" width="100" height="100" rx="15" fill="rgb(31 177 4 / 0.5)" transform="translate(-45,-45) scale(1.5)"></rect>
	</svg>
</svg>